<svg width="128" height="128" viewBox="0 0 128 128" fill="none" xmlns="http://www.w3.org/2000/svg">
<path fill-rule="evenodd" clip-rule="evenodd" d="M66 29.0562V11.037C76.1642 11.4141 85.5969 14.6534 93.5156 19.9726L82.9233 34.5517C77.9926 31.3766 72.2129 29.4062 66 29.0562ZM62 29.0562V11.037C51.8358 11.4141 42.4031 14.6535 34.4844 19.9726L45.0767 34.5517C50.0074 31.3766 55.7871 29.4062 62 29.0562ZM41.8425 36.9054L31.2502 22.3264C23.6019 28.3453 17.651 36.4244 14.2342 45.7272L31.3765 51.2971C33.5824 45.6361 37.2192 40.6907 41.8425 36.9054ZM30.1412 55.1015L12.9989 49.5317C11.6968 54.1307 11 58.984 11 64C11 69.016 11.6968 73.8693 12.9989 78.4683L30.1412 72.8985C29.3965 70.0571 29 67.0749 29 64C29 60.9251 29.3965 57.9428 30.1412 55.1015ZM31.3765 76.7029L14.2342 82.2728C17.651 91.5756 23.6019 99.6547 31.2502 105.674L41.8425 91.0946C37.2192 87.3092 33.5824 82.3639 31.3765 76.7029ZM45.0767 93.4483L34.4844 108.027C42.4031 113.347 51.8358 116.586 62 116.963V98.9438C55.7871 98.5938 50.0074 96.6234 45.0767 93.4483ZM66 98.9438V116.963C76.1642 116.586 85.5969 113.347 93.5156 108.027L82.9233 93.4483C77.9926 96.6234 72.2129 98.5938 66 98.9438ZM86.1575 91.0946L96.7498 105.674C104.398 99.6547 110.349 91.5756 113.766 82.2728L96.6235 76.7029C94.4176 82.3639 90.7808 87.3093 86.1575 91.0946ZM97.8572 72.9044L114.999 78.4772C116.302 73.8756 117 69.0193 117 64C117 58.9872 116.304 54.1369 115.004 49.5406L97.8603 55.1074C98.604 57.947 99 60.9272 99 64C99 67.077 98.6029 70.0613 97.8572 72.9044ZM97.2979 53.1873L114.422 47.6265L114.42 47.6177L97.296 53.1815C97.2966 53.1834 97.2972 53.1854 97.2979 53.1873ZM96.6235 51.2971L113.766 45.7272C110.349 36.4244 104.398 28.3453 96.7498 22.3264L86.1575 36.9054C90.7808 40.6907 94.4176 45.6361 96.6235 51.2971ZM5 64C5 31.4152 31.4152 5 64 5C96.5848 5 123 31.4152 123 64C123 96.5848 96.5848 123 64 123C31.4152 123 5 96.5848 5 64ZM35 64C35 47.9837 47.9837 35 64 35C80.0163 35 93 47.9837 93 64C93 80.0163 80.0163 93 64 93C47.9837 93 35 80.0163 35 64Z" fill="black"/>
</svg>
